HIERARCHY
ROOT simHips
{
  OFFSET 6.13146 95.3961 -0.669452
  CHANNELS 6 Xposition Yposition Zposition Zrotation Xrotation Yrotation
  JOINT simSpine
  {
    OFFSET -0.000360269 21.3001 -0.0169217
    CHANNELS 3 Zrotation Xrotation Yrotation
    JOINT simLeftArm
    {
      OFFSET 13.5181 21.3012 -2.3511e-005
      CHANNELS 3 Zrotation Xrotation Yrotation
      JOINT simLeftForeArm
      {
        OFFSET 24.5783 0 -6.3921e-005
        CHANNELS 3 Zrotation Xrotation Yrotation
        JOINT simLeftHand
        {
          OFFSET 24.5783 0 0
          CHANNELS 3 Zrotation Xrotation Yrotation
          End Site
          {
            OFFSET 7.32568 1.52588e-005 0.0169305
          }
        }
      }
    }
    JOINT simHead
    {
      OFFSET 0 27.4458 -0.00488811
      CHANNELS 3 Zrotation Xrotation Yrotation
      End Site
      {
        OFFSET 0 0 0
      }
    }
    JOINT simRightArm
    {
      OFFSET -13.5174 21.3012 -1.52733e-005
      CHANNELS 3 Zrotation Xrotation Yrotation
      JOINT simRightForeArm
      {
        OFFSET -24.5783 -0.000552281 0.000112897
        CHANNELS 3 Zrotation Xrotation Yrotation
        JOINT simRightHand
        {
          OFFSET -24.5783 0 1.19926e-005
          CHANNELS 3 Zrotation Xrotation Yrotation
          End Site
          {
            OFFSET -7.32568 1.52588e-005 0.0169305
          }
        }
      }
    }
  }
  JOINT simRightUpLeg
  {
    OFFSET -8.44614 -9.41038 0.835682
    CHANNELS 3 Zrotation Xrotation Yrotation
    JOINT simRightLeg
    {
      OFFSET -3.23466e-005 -40.9639 0
      CHANNELS 3 Zrotation Xrotation Yrotation
      JOINT simRightFoot
      {
        OFFSET 0 -40.9639 0
        CHANNELS 3 Zrotation Xrotation Yrotation
        End Site
        {
          OFFSET 0.50614 -9.67405 14.6709
        }
      }
    }
  }
  JOINT simLeftUpLeg
  {
    OFFSET 8.44614 -9.41038 0.835681
    CHANNELS 3 Zrotation Xrotation Yrotation
    JOINT simLeftLeg
    {
      OFFSET -0.00018133 -40.964 6.2497e-005
      CHANNELS 3 Zrotation Xrotation Yrotation
      JOINT simLeftFoot
      {
        OFFSET 0 -40.9639 0
        CHANNELS 3 Zrotation Xrotation Yrotation
        End Site
        {
          OFFSET -0.50614 -9.67405 14.6709
        }
      }
    }
  }
}
MOTION
Frames:	20
Frame Time:	0.0333333
2.81848 98.3802 -0.834226 6.18769 16.4941 -41.8942 3.45073 13.254 2.65605 -66.9837 -0.788215 8.97383 0.000178426 4.27798e-006 -78.6828 -31.9507 -42.72 -45.0117 0.830378 -15.3757 15.2824 67.6963 -2.75863 29.6824 -0.00417968 -5.99693e-006 113.142 173.735 -24.6123 -155.751 -18.0429 -14.4099 -22.8744 -0.00103787 17.0688 0.01277 24.9865 -9.78122 4.45729 38.4316 -39.2887 28.8994 0.000637988 34.1472 -0.0282159 -18.5294 -2.70369 -3.79934 
3.29606 98.2518 -0.693752 6.40013 17.5552 -41.8342 2.48348 14.2976 3.02477 -66.5648 -0.915337 8.4726 0.000178413 4.34192e-006 -78.5114 -31.5497 -42.8049 -44.1334 1.48738 -16.2084 15.0033 68.2048 -2.84622 29.7826 -0.00417977 -5.77255e-006 112.229 173.853 -24.7894 -155.61 -17.8673 -15.4018 -23.312 0.000576317 16.9805 0.00730723 25.0564 -9.42228 4.31476 39.5878 -40.8511 29.8352 0.00125519 35.1718 -0.0285669 -18.2414 -2.95687 -3.88504 
3.78776 98.1259 -0.533653 6.62144 18.6515 -41.7906 1.66634 15.1669 3.42967 -66.1608 -0.904835 8.00032 0.000178394 4.43319e-006 -78.2665 -31.6488 -43.0023 -44.2168 2.00945 -17.1528 14.5756 68.7394 -2.8764 29.8722 -0.00417988 -5.51429e-006 111.185 174.157 -25.0496 -155.41 -17.6954 -16.4178 -23.7545 0.00222425 16.8842 0.00167375 25.1228 -9.05117 4.16507 40.8032 -42.3908 30.8417 0.00186058 36.1522 -0.0289198 -17.9395 -3.20413 -3.96062 
4.25073 97.9958 -0.349326 6.79606 19.7466 -41.6313 1.04148 15.8476 3.87807 -65.8305 -0.766426 7.46207 0.000178366 4.56308e-006 -77.9176 -31.4584 -43.1439 -44.1534 2.32562 -17.9107 14.1668 69.1517 -2.92305 29.8803 -0.00417999 -5.21625e-006 109.99 174.436 -25.3442 -155.382 -17.5268 -17.3434 -24.2947 0.00380524 16.8139 -0.00378503 25.1927 -8.7239 4.03469 42.0191 -43.9166 31.8044 0.00245278 37.0882 -0.0292731 -17.6524 -3.43854 -4.06718 
4.64871 97.8676 -0.142428 6.91839 20.7673 -41.315 0.518493 16.3699 4.28608 -65.5624 -0.694406 6.85004 0.000178326 4.74759e-006 -77.4212 -31.2579 -43.3456 -43.8423 2.41271 -18.5986 13.8948 69.3964 -2.89146 29.9292 -0.00418011 -4.87327e-006 108.625 174.572 -25.6508 -155.432 -17.3913 -18.0846 -24.9518 0.00518528 16.7534 -0.0085859 25.2647 -8.46022 3.93216 43.1167 -45.3829 32.6305 0.00296971 37.9465 -0.0295481 -17.3935 -3.65149 -4.2187 
4.98122 97.7443 0.0812609 6.99136 21.644 -40.8817 0.0628431 16.7957 4.65469 -65.3371 -0.80695 6.26261 0.000178291 4.90032e-006 -77.0095 -30.6483 -43.37 -43.0202 2.28436 -19.2012 13.3588 69.4834 -2.74225 30.1037 -0.00418023 -4.48672e-006 107.1 174.547 -25.9968 -155.608 -17.3228 -18.6152 -25.6686 0.00651397 16.7096 -0.013229 25.3485 -8.26198 3.86044 44.0142 -46.7226 33.2816 0.00325855 38.7234 -0.0295075 -17.1547 -3.85269 -4.4071 
5.24473 97.6325 0.311576 6.96098 22.3293 -40.3188 -0.330121 17.2183 5.01243 -65.134 -0.943281 5.70436 0.00017826 5.03474e-006 -76.6467 -29.8837 -43.1735 -42.1154 2.23087 -19.838 12.8087 69.4655 -2.50047 30.3595 -0.00418036 -4.06206e-006 105.439 174.451 -26.667 -155.818 -17.3003 -18.8805 -26.4093 0.00749471 16.6925 -0.0166565 25.4413 -8.13355 3.82126 44.6326 -47.8773 33.6614 0.00600506 39.3959 -0.0292415 -16.9373 -4.03483 -4.62993 
5.43604 97.5392 0.54435 6.91611 22.7818 -39.6795 -0.79511 17.6209 5.4486 -64.8594 -0.949375 5.13946 0.00017823 5.16076e-006 -76.306 -29.0071 -43.1016 -41.0834 2.29735 -20.6841 12.2874 69.4608 -2.23762 30.6972 -0.00418047 -3.6221e-006 103.732 174.34 -27.4233 -155.8 -17.3921 -18.897 -27.1595 0.00799366 16.6696 -0.0184182 25.5354 -8.05529 3.80436 44.9069 -48.8301 33.781 -0.0176513 39.9515 -0.0288497 -16.7451 -4.20231 -4.86806 
5.55018 97.4696 0.773032 6.78792 23.0777 -38.9993 -1.12853 17.8709 5.80359 -64.6311 -1.09959 4.80864 0.000178204 5.26553e-006 -76.0224 -29.0821 -43.2585 -40.9768 2.22952 -21.3457 11.6909 69.3696 -1.84521 31.2031 -0.00418057 -3.1767e-006 102.016 174.264 -27.6621 -155.54 -17.4487 -18.6719 -27.8613 0.0083351 16.5614 -0.019733 25.617 -7.98047 3.79509 44.8989 -49.6013 33.6489 0.0156916 40.3997 -0.0284466 -16.5784 -4.34891 -5.13071 
5.58709 97.4165 0.98245 6.54197 23.2144 -38.3051 -1.27874 18.0412 6.16997 -64.4518 -1.30966 4.62741 0.00017819 5.32073e-006 -75.8729 -29.4508 -43.6217 -40.9533 2.14677 -21.6999 11.2452 69.0573 -1.34859 31.8467 -0.00418067 -2.6777e-006 100.107 174.093 -27.9722 -155.458 -17.4318 -18.2422 -28.4623 0.00854421 16.4354 -0.0206191 25.681 -7.94001 3.8025 44.8352 -50.0732 33.3935 -0.0389063 40.7506 -0.0281505 -16.4588 -4.48376 -5.39894 
5.54235 97.3934 1.17847 6.23884 23.1361 -37.6407 -1.38208 18.1268 6.57876 -64.2664 -1.47636 4.51629 0.000178181 5.35521e-006 -75.7794 -29.2023 -43.9363 -40.3293 1.9856 -22.3398 10.7275 68.6938 -0.867955 32.569 -0.00418075 -2.1717e-006 98.1824 173.671 -27.55 -156.082 -17.4113 -17.595 -28.9402 0.00862285 16.2822 -0.0210882 25.7336 -7.92988 3.82802 44.458 -50.2627 32.8487 -0.0716061 40.9797 -0.0280673 -16.3834 -4.62373 -5.64177 
5.4068 97.4024 1.35256 5.93128 22.849 -37.1019 -1.53603 18.0896 7.03827 -64.0689 -1.63713 4.42885 0.000178157 5.45105e-006 -75.5194 -28.829 -44.0759 -40.0277 2.12123 -22.9414 10.4873 68.3433 -0.257699 33.3219 0.000915626 -1.72857e-006 96.5046 173.119 -27.7254 -156.29 -17.398 -16.8147 -29.2235 0.0085907 16.1374 -0.0211567 25.7649 -7.96034 3.86479 43.7057 -50.1895 31.9924 0.00781032 41.0822 -0.0283113 -16.3741 -4.77077 -5.82012 
5.20351 97.4348 1.48695 5.64784 22.3238 -36.6858 -1.68473 17.8546 7.41202 -63.8013 -1.8252 4.57746 0.000178126 5.56905e-006 -75.1989 -28.8247 -44.227 -40.1816 2.20956 -22.8015 10.2884 68.0167 0.539404 34.2084 -0.0212097 -1.40146e-006 95.2698 173.236 -27.8462 -155.158 -17.448 -15.9226 -29.3183 0.00846868 16.0391 -0.0208414 25.7634 -8.03556 3.9019 42.86 -49.7455 31.1065 -0.0136287 41.049 -0.0289926 -16.424 -4.88648 -5.97062 
4.94014 97.4829 1.58418 5.31292 21.6272 -36.3689 -1.74223 17.634 7.79205 -63.5986 -2.12343 4.81561 0.000178118 5.59952e-006 -75.116 -28.879 -44.4707 -39.8026 2.29271 -22.6944 9.97349 67.6157 1.19546 35.1726 -0.00018306 -1.18273e-006 94.4455 173.088 -27.6814 -154.852 -17.4762 -14.9311 -29.2418 0.00826141 15.9874 -0.0201545 25.7463 -8.1524 3.95559 41.9001 -49.0304 30.1171 -0.00429489 40.9167 -0.0302373 -16.5325 -4.97928 -6.09509 
4.62683 97.5461 1.65282 4.98407 20.8025 -36.0523 -1.74453 17.3776 8.2078 -63.4816 -2.34475 5.03568 0.000178123 5.58074e-006 -75.1671 -28.9873 -44.76 -39.7114 2.18933 -22.58 9.61289 67.258 1.82055 36.0678 -0.121521 -1.00583e-006 93.7796 172.908 -27.6844 -154.803 -17.5496 -13.8494 -29.1389 0.00796917 15.9757 -0.0191069 25.7386 -8.31749 4.03383 40.789 -48.1498 28.9809 0.00124811 40.6477 -0.0321323 -16.6838 -5.02935 -6.1752 
4.26904 97.616 1.6878 4.66111 19.84 -35.7372 -1.70837 17.024 8.61896 -63.4507 -2.54295 5.26964 0.000178128 5.56148e-006 -75.2195 -29.1662 -45.038 -40.0308 2.25745 -22.3339 9.09947 66.7334 2.21223 36.8681 -0.0200195 -9.34261e-007 93.5103 172.945 -27.7378 -154.341 -17.6685 -12.6703 -29.007 0.00758976 15.9935 -0.0177092 25.7301 -8.52359 4.13121 39.5789 -47.1183 27.7446 0.00181754 40.2793 -0.0366374 -16.8816 -5.03449 -6.22785 
3.87623 97.6926 1.69879 4.37634 18.7661 -35.4551 -1.68118 16.5648 8.91238 -63.4343 -2.78924 5.56371 0.00017813 5.55291e-006 -75.2427 -29.5516 -45.2904 -40.3413 2.55991 -21.9288 8.55843 66.3687 2.58483 37.6241 0.00337222 -9.88459e-007 93.7142 173.35 -27.0377 -153.504 -17.8451 -11.4344 -28.8365 0.00712132 16.0319 -0.0159718 25.7134 -8.7586 4.24063 38.3009 -45.9538 26.4686 0.000476288 39.8214 -0.0414489 -17.117 -5.00515 -6.25959 
3.45947 97.7735 1.70031 4.12884 17.6139 -35.2305 -1.68433 16.0011 9.08112 -63.4222 -3.07545 5.95086 0.000178128 5.56298e-006 -75.2154 -30.3229 -45.6362 -41.0338 2.82924 -21.4569 7.78574 66.0841 2.98674 38.284 0.000595132 -1.09845e-006 94.1282 173.938 -26.4649 -152.994 -18.0706 -10.1673 -28.613 0.00609628 16.0822 -0.0122228 25.695 -9.01591 4.35431 37.019 -44.6613 25.2438 -0.0003191 39.2988 -0.0463896 -17.3748 -4.96285 -6.29335 
3.03458 97.8532 1.69856 3.89012 16.4396 -35.0099 -1.54512 15.2988 9.14465 -63.5142 -3.42094 6.46901 0.000178135 5.53314e-006 -75.2965 -31.1981 -46.0034 -41.4893 2.63269 -20.7703 7.08011 65.7218 3.41547 38.7661 -0.000791216 -1.2164e-006 94.5723 174.342 -26.1483 -153.152 -18.321 -8.89766 -28.3863 0.0049887 16.1828 -0.00817476 25.6725 -9.30769 4.48224 35.7688 -43.3111 24.0542 -0.000488323 38.7308 -0.051521 -17.6435 -4.91054 -6.32905 
2.59992 97.934 1.69057 3.64794 15.2804 -34.7987 -1.24701 14.519 9.11805 -63.7554 -3.73259 7.02194 0.000178151 5.47202e-006 -75.4625 -31.5834 -46.0128 -41.5911 2.19386 -19.9593 6.42805 65.2912 3.89588 39.2514 -0.00204121 -1.28575e-006 94.8337 174.196 -25.803 -153.882 -18.5502 -7.64121 -28.1426 0.00382447 16.2963 -0.00397036 25.6301 -9.61899 4.614 34.608 -41.9186 22.9295 -0.000366826 38.1173 -0.0567308 -17.9262 -4.84506 -6.36319 
